<?xml version="1.0" standalone="no"?><!DOCTYPE svg PUBLIC "-//W3C//DTD SVG 1.1//EN" "http://www.w3.org/Graphics/SVG/1.1/DTD/svg11.dtd"><svg t="1605512093709" class="icon" viewBox="0 0 1024 1024" version="1.1" xmlns="http://www.w3.org/2000/svg" p-id="1582" xmlns:xlink="http://www.w3.org/1999/xlink" width="200" height="200"><defs><style type="text/css"></style></defs><path d="M234.666667 234.666667m21.333333 0l512 0q21.333333 0 21.333333 21.333333l0 0q0 21.333333-21.333333 21.333333l-512 0q-21.333333 0-21.333333-21.333333l0 0q0-21.333333 21.333333-21.333333Z" p-id="1583" fill="#2c2c2c"></path><path d="M234.666667 490.666667m21.333333 0l512 0q21.333333 0 21.333333 21.333333l0 0q0 21.333333-21.333333 21.333333l-512 0q-21.333333 0-21.333333-21.333333l0 0q0-21.333333 21.333333-21.333333Z" p-id="1584" fill="#2c2c2c"></path><path d="M234.666667 746.666667m21.333333 0l512 0q21.333333 0 21.333333 21.333333l0 0q0 21.333333-21.333333 21.333333l-512 0q-21.333333 0-21.333333-21.333333l0 0q0-21.333333 21.333333-21.333333Z" p-id="1585" fill="#2c2c2c"></path></svg>